<?xml version="1.0" encoding="utf-8"?>
<!-- Generator: Adobe Illustrator 28.2.0, SVG Export Plug-In . SVG Version: 6.00 Build 0)  -->
<svg version="1.1" id="Layer_1" xmlns="http://www.w3.org/2000/svg" xmlns:xlink="http://www.w3.org/1999/xlink" x="0px" y="0px"
	 viewBox="0 0 590 730" style="enable-background:new 0 0 590 730;" xml:space="preserve">
<style type="text/css">
	.st0{fill:#9E9A8F;}
	.st1{fill:#88806E;}
	.st2{fill:#E4E0D4;}
	.st3{fill:#1D1D1B;}
	.st4{fill:none;stroke:#1D1D1B;stroke-width:4;stroke-miterlimit:10;}
	.st5{fill:none;stroke:#1D1D1B;stroke-miterlimit:10;}
	.st6{fill:#FCFDFF;stroke:#1D1D1B;stroke-width:5;stroke-miterlimit:10;}
	.st7{fill:none;stroke:#1D1D1B;stroke-width:6;stroke-miterlimit:10;}
</style>
<path class="st0" d="M176.9,700.75c-19.25-19.73-90.79-97.7-89.64-211.65c0.25-24.4,1.63-82.7,40.86-139.45
	c7.67-11.09,70.66-99.21,172.2-98.9c101.66,0.31,174.26,89.07,201.27,160.93c35.7,94.98,9.09,206.52-66.96,287.19"/>
<path class="st1" d="M342.5,605.4c-0.53,15.05-21.49,25.41-32.36,28.77c-7.28,2.24-13.44,2.39-15.69,2.39
	c-5.46,0-10.73-0.84-15.69-2.39c-10.04-3.14-30.89-13.7-32.53-29.14c-1.95-18.31,23.61-38.78,48.14-38.81
	c27.16-0.04,42.88,24.97,43.66,26.27C340.43,596.45,342.68,600.28,342.5,605.4z"/>
<path class="st2" d="M294.36,566.22c-10.24,25.36-34.73,40.99-59.89,39.02c-22.4-1.76-44.66-17.23-48.29-35.84
	c-5.08-26.02,26.02-61.29,81.18-80.46h53.99c55.17,19.18,86.26,54.44,81.18,80.46c-3.63,18.61-25.89,34.09-48.29,35.84
	C329.09,607.21,304.6,591.58,294.36,566.22"/>
<ellipse class="st3" cx="379.15" cy="569.79" rx="2" ry="2.01"/>
<ellipse class="st3" cx="386.85" cy="561.16" rx="3.2" ry="3.22"/>
<ellipse class="st3" cx="364.93" cy="574.88" rx="2" ry="2.01"/>
<ellipse class="st3" cx="373.51" cy="582.63" rx="3.2" ry="3.22"/>
<ellipse class="st3" cx="218.18" cy="572.46" rx="2" ry="2.01"/>
<ellipse class="st3" cx="226.76" cy="580.22" rx="3.2" ry="3.22"/>
<ellipse class="st3" cx="213.13" cy="558.15" rx="2" ry="2.01"/>
<ellipse class="st3" cx="205.43" cy="566.79" rx="3.2" ry="3.22"/>
<g>
	<path class="st4" d="M287.88,496.44c0.92-2.61-3.01-6.4-8.78-8.47c-5.77-2.07-11.2-1.64-12.13,0.96"/>
	<g>
		
			<ellipse transform="matrix(0.9408 -0.339 0.339 0.9408 -148.9821 134.7727)" class="st4" cx="311.27" cy="493.82" rx="11.11" ry="5"/>
		<path class="st4" d="M266.97,488.92c-0.92,2.61,3.01,6.4,8.78,8.47c5.77,2.07,11.2,1.64,12.13-0.96"/>
		<path class="st4" d="M266.97,488.92c-55.17,19.18-86.26,54.44-81.18,80.46c3.63,18.61,25.89,34.09,48.29,35.84
			c25.16,1.97,49.65-13.65,59.89-39.02"/>
		<path class="st4" d="M320.96,488.92c55.17,19.18,86.26,54.44,81.18,80.46c-3.63,18.61-25.89,34.09-48.29,35.84
			c-25.16,1.97-49.65-13.65-59.89-39.02"/>
	</g>
</g>
<path class="st4" d="M85.42,498.24c0-136.68,95.68-247.49,213.7-247.49s213.7,110.8,213.7,247.49"/>
<ellipse class="st3" cx="258.62" cy="305.03" rx="2" ry="2.01"/>
<ellipse class="st3" cx="266.33" cy="296.4" rx="3.2" ry="3.22"/>
<path class="st5" d="M278.8,274.42c-0.83-7.02-1.5-20.77,4.29-36.52c6.41-17.43,17.31-28.03,22.73-32.66"/>
<path class="st5" d="M268.12,275.49c-2.23-3.51-6.09-10.63-7.04-20.47c-1.05-10.9,2.03-19.34,3.72-23.19"/>
<path class="st5" d="M94.57,419.39c-4.68-2.25-13.46-7.24-20.94-17.08c-8.28-10.89-10.55-21.91-11.28-27.14"/>
<path class="st5" d="M92.65,439.08c-3.05,0.02-8.98-0.36-15.46-3.64c-7.17-3.63-11.18-8.89-12.9-11.47"/>
<path class="st5" d="M386.85,561.55c6.98-0.83,20.63-1.51,36.28,4.32c17.32,6.45,27.84,17.43,32.44,22.88"/>
<path class="st5" d="M379.15,569.79c6.94,1.12,20.26,4.24,33.72,14.15c14.9,10.97,22.04,24.44,24.98,30.95"/>
<path class="st5" d="M370.31,582.48c6.94,1.12,20.26,4.24,33.72,14.15c14.9,10.97,22.04,24.44,24.98,30.95"/>
<path class="st5" d="M205.43,566.89c-6.98-0.83-20.63-1.51-36.28,4.32c-17.32,6.45-27.84,17.43-32.44,22.88"/>
<path class="st5" d="M220.18,572.87c-6.94,1.12-20.26,4.24-33.72,14.15c-14.9,10.97-22.04,24.44-24.98,30.95"/>
<path class="st5" d="M228.31,581.4c-6.94,1.12-20.26,4.24-33.72,14.15c-14.9,10.97-22.04,24.44-24.98,30.95"/>
<g>
	<g>
		<ellipse class="st6" cx="203.15" cy="418.42" rx="70.8" ry="71.27"/>
		<ellipse class="st6" cx="379.48" cy="411.81" rx="68.21" ry="68.66"/>
		<path class="st7" d="M272.03,437.83c4.78,1.83,12.65,4.17,22.57,4.14c9.68-0.04,17.37-2.32,22.1-4.14"/>
	</g>
	<g>
		<ellipse class="st3" cx="232.74" cy="439.9" rx="8.33" ry="8.38"/>
		<ellipse class="st3" cx="355.99" cy="437.83" rx="8.33" ry="8.38"/>
	</g>
</g>
<path class="st5" d="M501.41,425.22c3.51-3.87,10.86-10.91,22.57-15.31c12.96-4.87,24.36-3.91,29.66-3.13"/>
<path class="st5" d="M501.45,419.76c0.84-2.95,2.89-8.56,7.92-13.87c5.57-5.87,11.83-8.24,14.84-9.17"/>
</svg>
